<svg xmlns="http://www.w3.org/2000/svg" viewBox="0 0 48 48"><title>Artboard 1</title><path d="M29,24,12,17.6133V42.1665A1.83339,1.83339,0,0,0,13.8335,44h29.333A1.83339,1.83339,0,0,0,45,42.1665V34Z" fill="#185c37"/><rect x="29" y="24" width="16" height="10" fill="#107c41"/><path d="M29,4H13.8335A1.83339,1.83339,0,0,0,12,5.8335V14L29,24H45V14Z" fill="#21a366"/><rect x="12" y="14" width="17" height="10" fill="#107c41"/><rect width="48" height="48" fill="none"/><path d="M24.1666,12H12V37H24.1666A1.83881,1.83881,0,0,0,26,35.16664V13.83333A1.83873,1.83873,0,0,0,24.1666,12Z" opacity="0.1"/><path d="M23.1666,13H12V38H23.1666A1.83881,1.83881,0,0,0,25,36.16664V14.83333A1.83873,1.83873,0,0,0,23.1666,13Z" opacity="0.2"/><path d="M23.1666,13H12V36H23.1666A1.83881,1.83881,0,0,0,25,34.16664V14.83333A1.83873,1.83873,0,0,0,23.1666,13Z" opacity="0.2"/><path d="M22.16661,13H12V36H22.16661A1.83881,1.83881,0,0,0,24,34.16664V14.83333A1.83873,1.83873,0,0,0,22.16661,13Z" opacity="0.2"/><rect x="2.00006" y="13.00009" width="21.99989" height="21.99989" rx="1.83332" fill="#107c41"/><path d="M7.67724,29.9585l3.856-5.97512L8.00134,18.0415h2.84213l1.928,3.79782q.26586.54028.36565.8061h.02493q.19109-.432.3989-.83934l2.061-3.76458h2.60944l-3.6233,5.90864,3.71471,6.00836H15.54711L13.32,25.78672a3.48171,3.48171,0,0,1-.26593-.55679h-.03324a2.62912,2.62912,0,0,1-.25762.54017l-2.29365,4.1884Z" fill="#fff"/><path d="M43.1665,4H29V14H45V5.8335A1.83339,1.83339,0,0,0,43.1665,4Z" fill="#33c481"/></svg>