<?xml version="1.0" encoding="utf-8"?>
<!-- Generator: Adobe Illustrator 23.0.0, SVG Export Plug-In . SVG Version: 6.00 Build 0)  -->
<svg version="1.1" xmlns="http://www.w3.org/2000/svg" xmlns:xlink="http://www.w3.org/1999/xlink" x="0px" y="0px"
	 viewBox="0 0 32 32" enable-background="new 0 0 32 32" xml:space="preserve">
<g id="_x5F_GRID" display="none">
</g>
<g id="ICONS">
	<g>
		<path fill="#FFFFFF" stroke="#979593" stroke-miterlimit="10" d="M20.0858,2.5H6.5c-0.5523,0-1,0.4477-1,1v25
			c0,0.5523,0.4477,1,1,1h19c0.5523,0,1-0.4477,1-1V8.9142c0-0.2652-0.1054-0.5196-0.2929-0.7071l-5.4142-5.4142
			C20.6054,2.6054,20.351,2.5,20.0858,2.5z"/>
		<path fill="none" stroke="#979593" stroke-miterlimit="10" d="M20.5,2.5v5c0,0.5523,0.4477,1,1,1h5"/>
	</g>
	<g>
		<path fill="#C8C6C4" d="M23.5,15h-15C8.2239,15,8,14.7761,8,14.5v0C8,14.2239,8.2239,14,8.5,14h15c0.2761,0,0.5,0.2239,0.5,0.5v0
			C24,14.7761,23.7761,15,23.5,15z"/>
		<path fill="#C8C6C4" d="M23.5,17h-15C8.2239,17,8,16.7761,8,16.5l0,0C8,16.2239,8.2239,16,8.5,16h15c0.2761,0,0.5,0.2239,0.5,0.5
			l0,0C24,16.7761,23.7761,17,23.5,17z"/>
		<path fill="#C8C6C4" d="M23.5,19h-15C8.2239,19,8,18.7761,8,18.5l0,0C8,18.2239,8.2239,18,8.5,18h15c0.2761,0,0.5,0.2239,0.5,0.5
			l0,0C24,18.7761,23.7761,19,23.5,19z"/>
		<path fill="#C8C6C4" d="M23.5,21h-15C8.2239,21,8,20.7761,8,20.5l0,0C8,20.2239,8.2239,20,8.5,20h15c0.2761,0,0.5,0.2239,0.5,0.5
			l0,0C24,20.7761,23.7761,21,23.5,21z"/>
		<path fill="#C8C6C4" d="M23.5,23h-15C8.2239,23,8,22.7761,8,22.5l0,0C8,22.2239,8.2239,22,8.5,22h15c0.2761,0,0.5,0.2239,0.5,0.5
			l0,0C24,22.7761,23.7761,23,23.5,23z"/>
	</g>
</g>
<g id="CENTERED_x5F_MARGINS" display="none">
	<g display="inline">
		<g>
			
				<rect x="14.5" y="-14.5" transform="matrix(6.123234e-17 -1 1 6.123234e-17 14.5 17.5)" opacity="0.2" fill="#FF00FF" width="3" height="32"/>
			
				<rect x="15" y="-15" transform="matrix(6.123234e-17 -1 1 6.123234e-17 15 17)" opacity="0.3" fill="#FF00FF" width="2" height="32"/>
		</g>
		<g>
			<rect x="29" opacity="0.2" fill="#FF00FF" width="3" height="32"/>
			<rect x="30" opacity="0.3" fill="#FF00FF" width="2" height="32"/>
		</g>
		<g>
			
				<rect x="14.5" y="14.5" transform="matrix(-1.836970e-16 1 -1 -1.836970e-16 46.5 14.5)" opacity="0.2" fill="#FF00FF" width="3" height="32"/>
			
				<rect x="15" y="15" transform="matrix(-1.836970e-16 1 -1 -1.836970e-16 47 15)" opacity="0.3" fill="#FF00FF" width="2" height="32"/>
		</g>
		<g>
			<rect transform="matrix(-1 -1.224647e-16 1.224647e-16 -1 3 32)" opacity="0.2" fill="#FF00FF" width="3" height="32"/>
			<rect transform="matrix(-1 -1.224647e-16 1.224647e-16 -1 2 32)" opacity="0.3" fill="#FF00FF" width="2" height="32"/>
		</g>
	</g>
	<g display="inline">
		<rect x="24" opacity="0.3" fill="#00FFFF" width="8" height="32"/>
		<rect opacity="0.3" fill="#00FFFF" width="8" height="32"/>
	</g>
</g>
<g id="_x5F_FILE_x5F_CENTER" display="none">
</g>
<g id="_x5F_THREE_x5F_HEIGHTS" display="none">
</g>
<g id="FOLDER_x5F_INCIDACTORS" display="none">
</g>
</svg>
