<?xml version="1.0" encoding="utf-8"?>
<!-- Generator: Adobe Illustrator 23.0.0, SVG Export Plug-In . SVG Version: 6.00 Build 0)  -->
<svg version="1.1" xmlns="http://www.w3.org/2000/svg" xmlns:xlink="http://www.w3.org/1999/xlink" x="0px" y="0px"
	 viewBox="0 0 48 48" enable-background="new 0 0 48 48" xml:space="preserve">
<g id="_x5F_GRID" display="none">
	<g display="inline">
		<g>
			
				<rect x="22" y="-22" transform="matrix(6.123234e-17 -1 1 6.123234e-17 22 26)" opacity="0.2" fill="#FF00FF" width="4" height="48"/>
			
				<rect x="22.5" y="-22.5" transform="matrix(6.123234e-17 -1 1 6.123234e-17 22.5 25.5)" opacity="0.3" fill="#FF00FF" width="3" height="48"/>
		</g>
		<g>
			
				<rect x="22" y="22" transform="matrix(-1.836970e-16 1 -1 -1.836970e-16 70 22)" opacity="0.2" fill="#FF00FF" width="4" height="48"/>
			
				<rect x="22.5" y="22.5" transform="matrix(-1.836970e-16 1 -1 -1.836970e-16 70.5 22.5)" opacity="0.3" fill="#FF00FF" width="3" height="48"/>
		</g>
		<g>
			<rect x="44" opacity="0.2" fill="#FF00FF" width="4" height="48"/>
			<rect x="45" opacity="0.3" fill="#FF00FF" width="3" height="48"/>
		</g>
		<g>
			<rect transform="matrix(-1 -1.224647e-16 1.224647e-16 -1 4 48)" opacity="0.2" fill="#FF00FF" width="4" height="48"/>
			<rect transform="matrix(-1 -1.224647e-16 1.224647e-16 -1 3 48)" opacity="0.3" fill="#FF00FF" width="3" height="48"/>
		</g>
	</g>
</g>
<g id="ICONS">
	<path fill="#FFFFFF" stroke="#979593" stroke-miterlimit="10" d="M33.0858,3.5H13.5c-0.5523,0-1,0.4477-1,1v39
		c0,0.5523,0.4477,1,1,1h29c0.5523,0,1-0.4477,1-1V13.9142c0-0.2652-0.1054-0.5196-0.2929-0.7071l-9.4142-9.4142
		C33.6054,3.6054,33.351,3.5,33.0858,3.5z"/>
	<path fill="none" stroke="#979593" stroke-miterlimit="10" d="M33.5,3.5v9c0,0.5523,0.4477,1,1,1h9"/>
	<g>
		<circle fill="none" stroke="#C8C6C4" stroke-miterlimit="10" cx="36.5" cy="34.5" r="3"/>
		<circle fill="none" stroke="#C8C6C4" stroke-miterlimit="10" cx="31.5" cy="19.5" r="3"/>
		<circle fill="#C8C6C4" cx="39.5" cy="16.5" r="0.5"/>
		<circle fill="#C8C6C4" cx="39.5" cy="20.5" r="0.5"/>
		<circle fill="#C8C6C4" cx="39.5" cy="24.5" r="0.5"/>
		<circle fill="#C8C6C4" cx="27.5" cy="37.5" r="0.5"/>
		<circle fill="#C8C6C4" cx="31.5" cy="37.5" r="0.5"/>
		<path fill="none" stroke="#C8C6C4" stroke-miterlimit="10" d="M26.5,30h-7c-0.5523,0-1-0.4477-1-1v-4c0-0.5523,0.4477-1,1-1h7
			c0.5523,0,1,0.4477,1,1v4C27.5,29.5523,27.0523,30,26.5,30z"/>
		<path fill="none" stroke="#C8C6C4" stroke-miterlimit="10" d="M27.5,27.1344h8c0.5523,0,1,0.4477,1,1V31"/>
		<line fill="none" stroke="#C8C6C4" stroke-miterlimit="10" x1="31.5" y1="22.5" x2="31.5" y2="27.5"/>
	</g>
	<g>
		<g>
			<path fill="#3955A3" d="M6,37h18c1.1046,0,2-0.8954,2-2V17c0-1.1046-0.8954-2-2-2H6c-1.1046,0-2,0.8954-2,2v18
				C4,36.1046,4.8954,37,6,37z"/>
		</g>
		<g>
			<g>
				<path fill="#FFFFFF" d="M14.3975,28.0724c0.3556,1.0148,0.5655,1.6555,0.6297,1.922l-0.0153,0
					c0.0638-0.2664,0.2903-0.9523,0.6795-2.0577l2.7968-7.9333l2.5026-0.0014l-4.6612,11.9899l-2.7117,0.0015l-4.6166-11.99
					l2.5802-0.0015L14.3975,28.0724z"/>
			</g>
		</g>
	</g>
</g>
<g id="CENTERED_x5F_MARGINS" display="none">
</g>
<g id="_x5F_FILE_x5F_CENTER" display="none">
</g>
<g id="_x5F_RIGHT_x5F_MARGIN" display="none" opacity="0.5">
	<g display="inline">
		<rect x="40" fill="#00FFFF" width="8" height="48"/>
	</g>
	<g display="inline">
		<rect x="40" opacity="0.3" fill="#00FFFF" width="8" height="48"/>
	</g>
</g>
<g id="_x5F_THREE_x5F_HEIGHTS" display="none">
	<rect x="24" y="18" display="inline" opacity="0.2" fill="#F7931E" width="24" height="23"/>
</g>
<g id="FOLDER_x5F_INCIDACTORS" display="none">
</g>
</svg>
