<?xml version="1.0" encoding="utf-8"?>
<!-- Generator: Adobe Illustrator 23.0.0, SVG Export Plug-In . SVG Version: 6.00 Build 0)  -->
<svg version="1.1" xmlns="http://www.w3.org/2000/svg" xmlns:xlink="http://www.w3.org/1999/xlink" x="0px" y="0px"
	 viewBox="0 0 32 32" enable-background="new 0 0 32 32" xml:space="preserve">
<g id="_x5F_GRID" display="none">
</g>
<g id="ICONS">
	<g>
		<path fill="#FFFFFF" stroke="#979593" stroke-miterlimit="10" d="M20.0858,2.5H6.5c-0.5523,0-1,0.4477-1,1v25
			c0,0.5523,0.4477,1,1,1h19c0.5523,0,1-0.4477,1-1V8.9142c0-0.2652-0.1054-0.5196-0.2929-0.7071l-5.4142-5.4142
			C20.6054,2.6054,20.351,2.5,20.0858,2.5z"/>
		<path fill="none" stroke="#979593" stroke-miterlimit="10" d="M20.5,2.5v5c0,0.5523,0.4477,1,1,1h5"/>
	</g>
	<g>
		<path fill="#C8C6C4" d="M23.5,13h-15C8.2239,13,8,12.7761,8,12.5v0C8,12.2239,8.2239,12,8.5,12h15c0.2761,0,0.5,0.2239,0.5,0.5v0
			C24,12.7761,23.7761,13,23.5,13z"/>
		<path fill="#C8C6C4" d="M23.5,15h-15C8.2239,15,8,14.7761,8,14.5v0C8,14.2239,8.2239,14,8.5,14h15c0.2761,0,0.5,0.2239,0.5,0.5v0
			C24,14.7761,23.7761,15,23.5,15z"/>
	</g>
	<g>
		<path fill="#C8C6C4" d="M23.5,17h-15C8.2239,17,8,16.7761,8,16.5l0,0C8,16.2239,8.2239,16,8.5,16h15c0.2761,0,0.5,0.2239,0.5,0.5
			l0,0C24,16.7761,23.7761,17,23.5,17z"/>
	</g>
	<g>
		<path fill="#D65532" d="M19,20c0.5513,0,1,0.4486,1,1v4c0,0.5514-0.4487,1-1,1h-6c-0.5513,0-1-0.4486-1-1v-4
			c0-0.5514,0.4487-1,1-1H19 M19,19h-6c-1.1045,0-2,0.8954-2,2v4c0,1.1046,0.8955,2,2,2h6c1.1045,0,2-0.8954,2-2v-4
			C21,19.8954,20.1045,19,19,19L19,19z"/>
	</g>
	<path fill="#D65532" d="M5,26h4.75C9.8881,26,10,25.8881,10,25.75v-5.5C10,20.1119,9.8881,20,9.75,20H5c-0.5523,0-1,0.4477-1,1v4
		C4,25.5523,4.4477,26,5,26z"/>
	<path fill="#D65532" d="M27,20h-4.75C22.1119,20,22,20.1119,22,20.25v5.5c0,0.1381,0.1119,0.25,0.25,0.25H27c0.5523,0,1-0.4477,1-1
		v-4C28,20.4477,27.5523,20,27,20z"/>
</g>
<g id="CENTERED_x5F_MARGINS" display="none">
</g>
<g id="_x5F_FILE_x5F_CENTER" display="none">
</g>
<g id="_x5F_THREE_x5F_HEIGHTS" display="none">
</g>
<g id="FOLDER_x5F_INCIDACTORS" display="none">
</g>
</svg>
